<svg width="393" height="15" viewBox="0 0 393 15" fill="none" xmlns="http://www.w3.org/2000/svg">
<path d="M179.227 5.39844C179.201 5.11198 179.085 4.88932 178.879 4.73047C178.676 4.56901 178.386 4.48828 178.008 4.48828C177.758 4.48828 177.55 4.52083 177.383 4.58594C177.217 4.65104 177.092 4.74089 177.008 4.85547C176.925 4.96745 176.882 5.09635 176.879 5.24219C176.874 5.36198 176.898 5.46745 176.95 5.55859C177.004 5.64974 177.083 5.73047 177.184 5.80078C177.288 5.86849 177.413 5.92839 177.559 5.98047C177.705 6.03255 177.869 6.07812 178.051 6.11719L178.739 6.27344C179.135 6.35938 179.484 6.47396 179.786 6.61719C180.09 6.76042 180.346 6.93099 180.551 7.12891C180.76 7.32682 180.917 7.55469 181.024 7.8125C181.131 8.07031 181.185 8.35937 181.188 8.67969C181.185 9.1849 181.058 9.61849 180.805 9.98047C180.553 10.3424 180.189 10.6198 179.715 10.8125C179.244 11.0052 178.675 11.1016 178.008 11.1016C177.339 11.1016 176.756 11.0013 176.258 10.8008C175.761 10.6003 175.374 10.2956 175.098 9.88672C174.822 9.47786 174.68 8.96094 174.672 8.33594H176.524C176.54 8.59375 176.609 8.80859 176.731 8.98047C176.853 9.15234 177.021 9.28255 177.235 9.37109C177.451 9.45964 177.701 9.50391 177.985 9.50391C178.245 9.50391 178.467 9.46875 178.649 9.39844C178.834 9.32813 178.976 9.23047 179.075 9.10547C179.174 8.98047 179.224 8.83724 179.227 8.67578C179.224 8.52474 179.178 8.39583 179.086 8.28906C178.995 8.17969 178.855 8.08594 178.665 8.00781C178.477 7.92708 178.237 7.85286 177.946 7.78516L177.11 7.58984C176.417 7.43099 175.872 7.17448 175.473 6.82031C175.075 6.46354 174.877 5.98177 174.879 5.375C174.877 4.88021 175.01 4.44661 175.278 4.07422C175.546 3.70182 175.917 3.41146 176.391 3.20313C176.865 2.99479 177.405 2.89062 178.012 2.89062C178.632 2.89062 179.17 2.99609 179.625 3.20703C180.084 3.41536 180.439 3.70833 180.692 4.08594C180.944 4.46354 181.073 4.90104 181.079 5.39844H179.227ZM184.965 11.1133C184.335 11.1133 183.793 10.9844 183.34 10.7266C182.89 10.4661 182.542 10.1042 182.297 9.64062C182.055 9.17448 181.934 8.63411 181.934 8.01953C181.934 7.40234 182.055 6.86198 182.297 6.39844C182.542 5.93229 182.89 5.57031 183.34 5.3125C183.793 5.05208 184.335 4.92188 184.965 4.92188C185.596 4.92188 186.136 5.05208 186.586 5.3125C187.04 5.57031 187.387 5.93229 187.629 6.39844C187.874 6.86198 187.997 7.40234 187.997 8.01953C187.997 8.63411 187.874 9.17448 187.629 9.64062C187.387 10.1042 187.04 10.4661 186.586 10.7266C186.136 10.9844 185.596 11.1133 184.965 11.1133ZM184.977 9.67187C185.206 9.67187 185.4 9.60156 185.559 9.46094C185.718 9.32031 185.839 9.125 185.922 8.875C186.008 8.625 186.051 8.33594 186.051 8.00781C186.051 7.67448 186.008 7.38281 185.922 7.13281C185.839 6.88281 185.718 6.6875 185.559 6.54687C185.4 6.40625 185.206 6.33594 184.977 6.33594C184.74 6.33594 184.54 6.40625 184.375 6.54687C184.214 6.6875 184.09 6.88281 184.004 7.13281C183.921 7.38281 183.879 7.67448 183.879 8.00781C183.879 8.33594 183.921 8.625 184.004 8.875C184.09 9.125 184.214 9.32031 184.375 9.46094C184.54 9.60156 184.74 9.67187 184.977 9.67187ZM188.975 11V5H190.792V6.10156H190.858C190.983 5.73698 191.194 5.44922 191.491 5.23828C191.788 5.02734 192.142 4.92188 192.553 4.92188C192.97 4.92188 193.327 5.02865 193.624 5.24219C193.92 5.45573 194.109 5.74219 194.19 6.10156H194.252C194.364 5.74479 194.583 5.45964 194.909 5.24609C195.234 5.02995 195.618 4.92188 196.061 4.92188C196.629 4.92188 197.09 5.10417 197.444 5.46875C197.798 5.83073 197.975 6.32812 197.975 6.96094V11H196.065V7.39844C196.065 7.09896 195.988 6.87109 195.834 6.71484C195.681 6.55599 195.482 6.47656 195.237 6.47656C194.974 6.47656 194.767 6.5625 194.616 6.73437C194.467 6.90365 194.393 7.13151 194.393 7.41797V11H192.557V7.37891C192.557 7.10026 192.482 6.88021 192.331 6.71875C192.18 6.55729 191.98 6.47656 191.733 6.47656C191.566 6.47656 191.419 6.51693 191.292 6.59766C191.164 6.67578 191.064 6.78776 190.991 6.93359C190.92 7.07943 190.885 7.2513 190.885 7.44922V11H188.975ZM201.963 11.1133C201.336 11.1133 200.794 10.9896 200.338 10.7422C199.885 10.4922 199.536 10.1367 199.292 9.67578C199.049 9.21224 198.928 8.66146 198.928 8.02344C198.928 7.40365 199.051 6.86198 199.295 6.39844C199.54 5.93229 199.885 5.57031 200.331 5.3125C200.776 5.05208 201.301 4.92188 201.905 4.92188C202.332 4.92188 202.722 4.98828 203.077 5.12109C203.431 5.25391 203.737 5.45052 203.995 5.71094C204.252 5.97135 204.453 6.29297 204.596 6.67578C204.739 7.05599 204.811 7.49219 204.811 7.98437V8.46094H199.596V7.35156H203.034C203.031 7.14844 202.983 6.96745 202.889 6.80859C202.795 6.64974 202.667 6.52604 202.502 6.4375C202.341 6.34635 202.155 6.30078 201.944 6.30078C201.73 6.30078 201.539 6.34896 201.37 6.44531C201.2 6.53906 201.066 6.66797 200.967 6.83203C200.868 6.99349 200.816 7.17708 200.811 7.38281V8.51172C200.811 8.75651 200.859 8.97135 200.956 9.15625C201.052 9.33854 201.189 9.48047 201.366 9.58203C201.543 9.68359 201.754 9.73437 201.999 9.73437C202.168 9.73437 202.321 9.71094 202.459 9.66406C202.597 9.61719 202.716 9.54818 202.815 9.45703C202.914 9.36589 202.988 9.25391 203.038 9.12109L204.792 9.17187C204.719 9.5651 204.558 9.90755 204.311 10.1992C204.066 10.4883 203.745 10.7135 203.346 10.875C202.948 11.0339 202.487 11.1133 201.963 11.1133ZM205.787 3H208.181L210.212 7.95312H210.306L212.337 3H214.732V11H212.849V6.08594H212.783L210.861 10.9492H209.658L207.736 6.05859H207.669V11H205.787V3ZM217.629 11.1016C217.247 11.1016 216.907 11.0378 216.61 10.9102C216.316 10.7799 216.083 10.5846 215.911 10.3242C215.741 10.0612 215.657 9.73177 215.657 9.33594C215.657 9.0026 215.715 8.72135 215.833 8.49219C215.95 8.26302 216.111 8.07682 216.317 7.93359C216.523 7.79036 216.76 7.68229 217.028 7.60937C217.296 7.53385 217.583 7.48307 217.887 7.45703C218.228 7.42578 218.503 7.39323 218.711 7.35938C218.92 7.32292 219.071 7.27214 219.165 7.20703C219.261 7.13932 219.309 7.04427 219.309 6.92187V6.90234C219.309 6.70182 219.24 6.54687 219.102 6.4375C218.964 6.32812 218.778 6.27344 218.543 6.27344C218.291 6.27344 218.088 6.32812 217.934 6.4375C217.78 6.54687 217.683 6.69792 217.641 6.89062L215.879 6.82812C215.931 6.46354 216.066 6.13802 216.282 5.85156C216.5 5.5625 216.8 5.33594 217.18 5.17187C217.563 5.00521 218.023 4.92188 218.559 4.92188C218.942 4.92188 219.295 4.96745 219.618 5.05859C219.941 5.14714 220.222 5.27734 220.461 5.44922C220.701 5.61849 220.886 5.82682 221.016 6.07422C221.149 6.32161 221.215 6.60417 221.215 6.92187V11H219.418V10.1641H219.372C219.265 10.3672 219.128 10.5391 218.961 10.6797C218.797 10.8203 218.603 10.9258 218.379 10.9961C218.158 11.0664 217.908 11.1016 217.629 11.1016ZM218.219 9.85156C218.425 9.85156 218.61 9.8099 218.774 9.72656C218.941 9.64323 219.073 9.52865 219.172 9.38281C219.271 9.23437 219.321 9.0625 219.321 8.86719V8.29687C219.266 8.32552 219.2 8.35156 219.122 8.375C219.046 8.39844 218.963 8.42057 218.872 8.44141C218.78 8.46224 218.687 8.48047 218.59 8.49609C218.494 8.51172 218.402 8.52604 218.313 8.53906C218.133 8.56771 217.98 8.61198 217.852 8.67187C217.727 8.73177 217.631 8.8099 217.563 8.90625C217.498 9 217.465 9.11198 217.465 9.24219C217.465 9.4401 217.536 9.59115 217.676 9.69531C217.819 9.79948 218 9.85156 218.219 9.85156ZM225.77 5V6.40625H221.985V5H225.77ZM222.778 3.5625H224.688V9.11328C224.688 9.23047 224.706 9.32552 224.743 9.39844C224.782 9.46875 224.838 9.51953 224.911 9.55078C224.984 9.57943 225.071 9.59375 225.172 9.59375C225.245 9.59375 225.322 9.58724 225.403 9.57422C225.486 9.55859 225.549 9.54557 225.59 9.53516L225.879 10.9141C225.788 10.9401 225.659 10.9727 225.493 11.0117C225.329 11.0508 225.132 11.0755 224.903 11.0859C224.455 11.1068 224.071 11.0547 223.75 10.9297C223.433 10.8021 223.189 10.6042 223.02 10.3359C222.853 10.0677 222.773 9.73047 222.778 9.32422V3.5625ZM229.485 11.1133C228.857 11.1133 228.316 10.9896 227.86 10.7422C227.407 10.4922 227.058 10.1367 226.813 9.67578C226.571 9.21224 226.45 8.66146 226.45 8.02344C226.45 7.40365 226.572 6.86198 226.817 6.39844C227.062 5.93229 227.407 5.57031 227.852 5.3125C228.297 5.05208 228.822 4.92188 229.426 4.92188C229.853 4.92188 230.244 4.98828 230.598 5.12109C230.952 5.25391 231.258 5.45052 231.516 5.71094C231.774 5.97135 231.974 6.29297 232.118 6.67578C232.261 7.05599 232.333 7.49219 232.333 7.98437V8.46094H227.118V7.35156H230.555C230.553 7.14844 230.504 6.96745 230.411 6.80859C230.317 6.64974 230.188 6.52604 230.024 6.4375C229.862 6.34635 229.676 6.30078 229.465 6.30078C229.252 6.30078 229.06 6.34896 228.891 6.44531C228.722 6.53906 228.588 6.66797 228.489 6.83203C228.39 6.99349 228.338 7.17708 228.333 7.38281V8.51172C228.333 8.75651 228.381 8.97135 228.477 9.15625C228.573 9.33854 228.71 9.48047 228.887 9.58203C229.064 9.68359 229.275 9.73437 229.52 9.73437C229.689 9.73437 229.843 9.71094 229.981 9.66406C230.119 9.61719 230.237 9.54818 230.336 9.45703C230.435 9.36589 230.51 9.25391 230.559 9.12109L232.313 9.17187C232.24 9.5651 232.08 9.90755 231.833 10.1992C231.588 10.4883 231.266 10.7135 230.868 10.875C230.469 11.0339 230.008 11.1133 229.485 11.1133Z" fill="#8EC9FF"/>
</svg>
